Coordinates
version=1
nRows=4
nColumns=63
inDegrees=yes

Units are S.I. units (second, meters, Newtons, ...)
If the header above contains a line with 'inDegrees', this indicates whether rotational values are in degrees (yes) or radians (no).

endheader
time	pelvis_tilt	pelvis_list	pelvis_rotation	pelvis_tx	pelvis_ty	pelvis_tz	hip_flexion_r	hip_adduction_r	hip_rotation_r	knee_angle_r	knee_angle_r_beta	ankle_angle_r	subtalar_angle_r	mtp_angle_r	hip_flexion_l	hip_adduction_l	hip_rotation_l	knee_angle_l	knee_angle_l_beta	ankle_angle_l	subtalar_angle_l	mtp_angle_l	L5_S1_Flex_Ext	L5_S1_Lat_Bending	L5_S1_axial_rotation	L4_L5_Flex_Ext	L4_L5_Lat_Bending	L4_L5_axial_rotation	L3_L4_Flex_Ext	L3_L4_Lat_Bending	L3_L4_axial_rotation	L2_L3_Flex_Ext	L2_L3_Lat_Bending	L2_L3_axial_rotation	L1_L2_Flex_Ext	L1_L2_Lat_Bending	L1_L2_axial_rotation	L1_T12_Flex_Ext	L1_T12_Lat_Bending	L1_T12_axial_rotation	Abs_r3	Abs_r2	Abs_r1	Abs_t1	Abs_t2	neck_flexion	neck_bending	neck_rotation	arm_flex_r	arm_add_r	arm_rot_r	elbow_flex_r	pro_sup_r	wrist_flex_r	wrist_dev_r	arm_flex_l	arm_add_l	arm_rot_l	elbow_flex_l	pro_sup_l	wrist_flex_l	wrist_dev_l
      2.19642857	     -3.80943903	     -0.74366911	    105.93665920	      0.05213340	      0.98715519	      0.46847441	     -7.78115451	     -0.38138238	     -9.95876596	      7.79198271	      0.13599575	     22.09865860	     -2.86292700	      0.00000000	     -8.12249112	      0.80172182	      7.63991194	      0.50574444	      0.00882691	     25.96241657	      4.31919851	      0.00000000	      0.30587157	     -0.15315467	     -0.27350266	      0.56803409	     -0.20369571	     -0.29059658	      0.50251640	     -0.37238025	     -0.29059658	      0.34958061	     -0.37238025	     -0.23931483	      0.28403234	     -0.31231299	     -0.22222091	      0.17477501	     -0.23723658	     -0.20512699	      2.18481002	     -1.73251621	     -1.52113974	      0.00000000	      0.00000000	     14.29430151	      2.32942883	     -2.69941494	    -30.26461169	    -59.94686712	    -10.84137616	     60.26107328	     48.81856103	     35.61319318	     -3.34793297	      0.08436208	    -69.66455957	     23.15338502	     62.43600914	     42.92797463	     23.12861953	      8.48507997
      2.21428571	     -3.73860206	     -0.42969872	    106.15921550	      0.05138637	      0.98709464	      0.46808718	     -8.14671587	     -0.22709369	    -10.57440547	      7.79685067	      0.13608072	     22.30256546	     -2.18670888	      0.00000000	     -8.46377243	      0.62354522	      7.66206179	      0.45900981	      0.00801123	     26.26281874	      4.63977237	      0.00000000	      0.28464537	     -0.12239873	     -0.57717270	      0.52861492	     -0.16279031	     -0.61324600	      0.46764388	     -0.29760027	     -0.61324600	      0.32532120	     -0.29760027	     -0.50502611	      0.26432169	     -0.24959549	     -0.46895282	      0.16264637	     -0.18959563	     -0.43287953	      2.03319343	     -1.38459893	     -3.21006142	      0.00000000	      0.00000000	     13.64267733	      2.10756024	     -1.62246187	    -27.30751753	    -59.74077691	     -9.03119601	     60.19793621	     48.28475466	     32.45106827	     -3.26214993	     -6.04398895	    -68.71363873	     16.51385465	     63.23454374	     36.72534868	     19.73496899	      9.63691536
      2.23214286	     -3.62668709	     -0.24335224	    106.11300551	      0.05135481	      0.98677781	      0.46839887	     -8.28238212	     -0.07064308	    -10.38419486	      7.82914775	      0.13664441	     22.61270139	     -2.04866735	      0.00000000	     -8.60269169	      0.47103372	      7.71799438	      0.48024678	      0.00838189	     26.61031908	      4.61742717	      0.00000000	      0.28254096	     -0.09683706	     -0.64729846	      0.52470681	     -0.12879329	     -0.68775461	      0.46418654	     -0.23544963	     -0.68775461	      0.32291606	     -0.23544963	     -0.56638615	      0.26236753	     -0.19747013	     -0.52593000	      0.16144390	     -0.15000061	     -0.48547384	      2.01816181	     -1.09544019	     -3.60007982	      0.00000000	      0.00000000	     12.93932830	      1.83989883	     -1.57360352	    -25.93605394	    -58.43284763	     -9.38017244	     59.42980369	     48.02166773	     31.55485276	     -3.35590567	     -5.69190252	    -67.51327076	     16.14697437	     62.40686978	     36.47036745	     19.30845890	      9.21306927
      2.25000000	     -3.60670383	      0.25214479	    106.27976267	      0.05101732	      0.98736149	      0.46920795	     -8.74988022	     -0.00197312	    -12.10153227	      7.93679992	      0.13852329	     23.10451740	      0.24670434	      0.00000000	     -9.06141375	      0.30750760	      7.90971100	      0.45958372	      0.00802125	     26.71895127	      4.52150886	      0.00000000	      0.23458633	     -0.07405711	     -1.00246655	      0.43565027	     -0.09849596	     -1.06512071	      0.38540188	     -0.18006246	     -1.06512071	      0.26810871	     -0.18006246	     -0.87715823	      0.21783686	     -0.15101726	     -0.81450407	      0.13404263	     -0.11471447	     -0.75184991	      1.67562667	     -0.83774887	     -5.57541819	      0.00000000	      0.00000000	     11.65890777	      1.73901919	     -0.45861131	    -20.56320730	    -58.19634280	     -4.67162860	     57.95683279	     45.56470874	     29.59565909	     -0.96170830	     -9.98473040	    -65.94222298	     11.40420866	     62.18148212	     37.21499213	     18.51608121	      6.70580326
